<?xml version="1.0" encoding="UTF-8" standalone="no"?>
<!-- Created with Inkscape (http://www.inkscape.org/) -->

<svg
   xmlns:dc="http://purl.org/dc/elements/1.1/"
   xmlns:cc="http://creativecommons.org/ns#"
   xmlns:rdf="http://www.w3.org/1999/02/22-rdf-syntax-ns#"
   xmlns:svg="http://www.w3.org/2000/svg"
   xmlns="http://www.w3.org/2000/svg"
   xmlns:sodipodi="http://sodipodi.sourceforge.net/DTD/sodipodi-0.dtd"
   xmlns:inkscape="http://www.inkscape.org/namespaces/inkscape"
   width="518.32043"
   height="518.3219"
   id="svg2"
   version="1.1"
   inkscape:version="0.48.4 r9939"
   sodipodi:docname="Nouveau document 1">
  <defs
     id="defs4" />
  <sodipodi:namedview
     id="base"
     pagecolor="#ffffff"
     bordercolor="#666666"
     borderopacity="1.0"
     inkscape:pageopacity="0.0"
     inkscape:pageshadow="2"
     inkscape:zoom="0.35"
     inkscape:cx="286.89175"
     inkscape:cy="102.67904"
     inkscape:document-units="px"
     inkscape:current-layer="layer1"
     showgrid="false"
     fit-margin-top="0"
     fit-margin-left="0"
     fit-margin-right="0"
     fit-margin-bottom="0"
     inkscape:window-width="1366"
     inkscape:window-height="705"
     inkscape:window-x="-8"
     inkscape:window-y="-8"
     inkscape:window-maximized="1" />
  <metadata
     id="metadata7">
    <rdf:RDF>
      <cc:Work
         rdf:about="">
        <dc:format>image/svg+xml</dc:format>
        <dc:type
           rdf:resource="http://purl.org/dc/dcmitype/StillImage" />
        <dc:title></dc:title>
      </cc:Work>
    </rdf:RDF>
  </metadata>
  <g
     inkscape:label="Calque 1"
     inkscape:groupmode="layer"
     id="layer1"
     transform="translate(-88.108254,-116.71933)">
    <path
       style="fill:#e2c9ba"
       d="M 88.3919,633.97124 C 88.1303,633.28269 88.0316,516.61933 88.1725,374.71933 l 0.2562,-258 259,0 259,0 0,259 0,259 -258.7806,0.25191 c -206.5001,0.20101 -258.8768,-10e-4 -259.2562,-1 z"
       id="path3037"
       inkscape:connector-curvature="0" />
    <path
       style="fill:#87795b"
       d="m 288.282,583.33293 c -19.811,-0.75285 -20.3533,-1.04197 -20.3533,-10.852 0,-4.89016 0.7459,-8.26298 3.1173,-14.09501 1.7144,-4.21663 4.3156,-11.94159 5.7803,-17.16659 l 2.6632,-9.5 61.3233,0 61.3233,0 2.9949,8 c 2.5638,6.84837 3.0167,9.51151 3.1463,18.5 0.2136,14.81381 -0.7752,19.82803 -4.1675,21.13427 -8.8413,3.40438 -17.8009,4.0653 -58.6811,4.32873 -22.55,0.14532 -48.266,-0.0119 -57.1467,-0.3494 z m 97.6467,-56.77719 c -0.825,-0.32856 -2.2781,-1.27492 -3.2291,-2.10302 -1.5459,-1.34599 -1.7958,-1.33216 -2.357,0.13049 -0.8942,2.33017 -14.8908,2.39322 -16.1893,0.0729 -0.7933,-1.41758 -0.9957,-1.41758 -2.1722,0 -1.7386,2.09491 -5.764,1.98569 -6.8851,-0.18681 -0.4966,-0.9625 -1.4719,-4.225 -2.1673,-7.25 -2.7358,-11.90132 -4.9598,-11.34361 -4.9847,1.25 l -0.015,7.75003 -3.0184,0 -3.0185,0 0.2685,-23.25 0.2684,-23.25 6.2478,-0.29766 c 5.5445,-0.26415 6.5295,-0.016 8.75,2.20455 2.2303,2.23034 2.5022,3.32741 2.5022,10.09732 0,4.62076 -0.5585,8.67519 -1.4262,10.35314 -1.2251,2.36909 -1.2302,3.38448 -0.036,7.20034 0.7646,2.44327 1.886,6.40023 2.4919,8.79325 0.606,2.39302 1.4097,4.04419 1.786,3.66928 0.3764,-0.37492 0.9093,-9.98284 1.1843,-21.35094 l 0.5,-20.66928 7.75,-0.29206 7.75,-0.29207 0,4.54207 c 0,4.47183 -0.051,4.54206 -3.3,4.54206 -3.9746,0 -5.7,1.51353 -5.7,5 0,3.36113 1.7044,5 5.2,5 2.6,0 2.8,0.28571 2.8,4 0,3.71429 -0.2,4 -2.8,4 -3.7665,0 -5.2,1.67544 -5.2,6.07756 0,4.34407 1.2159,5.54253 6.1844,6.09548 3.1201,0.34725 3.8514,0.0438 4.7739,-1.98088 1.0383,-2.27891 1.2037,-2.31599 3.5303,-0.79155 3.2365,2.12063 5.2169,2.01823 6.4762,-0.33487 1.4659,-2.73907 1.5054,-2.64874 -3.4933,-7.99276 -5.8611,-6.26592 -7.5791,-13.01215 -5.3947,-21.18294 1.7421,-6.5164 5.0179,-8.71465 10.8415,-7.27528 3.4849,0.86133 3.5898,1.02706 3.8839,6.13524 0.2375,4.12439 -0.018,5.25 -1.1909,5.25 -0.8213,0 -1.7714,-0.45 -2.1113,-1 -0.5888,-0.9526 -4.5,-1.45827 -4.5,-0.58179 0,0.23002 -0.2575,1.08933 -0.5723,1.90959 -0.3517,0.91647 1.341,3.60408 4.3911,6.97209 4.1219,4.55157 5.0828,6.34964 5.6682,10.60606 0.836,6.07824 -0.8558,14.21286 -3.4429,16.55412 -1.9542,1.76853 -7.6453,2.83168 -10.0441,1.87634 z m -33,-30.83641 c 1.2739,-3.35051 -0.3867,-7.7628 -2.7529,-7.31457 -1.7927,0.33959 -2.9412,5.5634 -1.8489,8.40977 0.8674,2.26061 3.5705,1.6173 4.6018,-1.0952 z m -71.7684,7.25 0.2684,-23.25 3.5,0 c 3.4839,0 3.5124,0.0368 6.1932,8 1.4813,4.4 2.926,8.88035 3.2104,9.95633 1.024,3.87405 2.1058,0.21364 2.5964,-8.78501 0.4897,-8.98274 0.5514,-9.17132 3,-9.17132 l 2.5,0 0.5,19.16953 c 0.6912,26.49905 1.0643,26.52239 6.0254,0.37703 1.7171,-9.04939 3.5547,-17.26189 4.0835,-18.25 1.4423,-2.695 6.6802,-2.39396 7.8896,0.45344 0.5256,1.2375 2.3377,9.675 4.0269,18.75 4.8959,26.30256 5.2863,26.2483 5.9746,-0.83056 l 0.5,-19.66944 2.75,-0.31642 2.75,-0.31642 0,23.56642 0,23.56642 -2.441,0 c -1.3425,0 -2.7326,-0.47185 -3.089,-1.04856 -0.4465,-0.7224 -1.0681,-0.69993 -1.9986,0.0723 -0.7427,0.61645 -2.5962,0.9758 -4.1187,0.79856 -2.2935,-0.267 -2.9469,-1.00858 -3.8104,-4.3243 -1.3974,-5.36576 -2.2515,-6.498 -4.9013,-6.498 -2.8956,0 -4.641,1.79234 -4.641,4.76574 0,3.66052 -1.8281,6.23426 -4.4282,6.23426 -1.2968,0 -2.6403,-0.73625 -2.9857,-1.63612 -0.5812,-1.51483 -0.7618,-1.51483 -2.4357,0 -2.1487,1.94453 -5.4961,2.13077 -6.9401,0.38612 -0.569,-0.6875 -2.2541,-5.525 -3.7447,-10.75 -1.4907,-5.225 -2.9365,-9.88554 -3.2129,-10.35676 -1.2999,-2.21547 -2.2235,2.78232 -2.2374,12.10676 l -0.015,10.25 -2.5184,0 -2.5185,0 0.2685,-23.25 z m 36.6837,-1.04551 c -0.5034,-1.75521 -0.9222,-3.41926 -0.9306,-3.69789 -0.057,-1.88022 -1.9572,3.01855 -1.9694,5.07673 -0.019,3.19251 0.9069,4.22614 2.5579,2.85589 0.9041,-0.75032 1.0002,-1.93992 0.3421,-4.23473 z m -30.6837,-48.95449 0.2684,-23.25 6.2312,0.009 c 5.1368,0.007 6.6298,0.40753 8.5,2.27778 2.0673,2.06725 2.2688,3.19176 2.2688,12.66042 0,9.62163 -0.1796,10.58289 -2.4243,12.97223 -1.3334,1.41932 -3.3809,2.58057 -4.55,2.58057 -3.5469,0 -4.5257,1.98981 -4.5257,9.2 l 0,6.8 -3.0184,0 -3.0185,0 0.2685,-23.25 z m 10.5899,-5.10924 c 1.7037,-3.49567 0.3315,-8.14076 -2.4048,-8.14076 -1.5483,0 -1.9769,0.83882 -2.2298,4.3644 -0.5396,7.52151 1.8575,9.47463 4.6346,3.77636 z m 5.6215,27.07125 c -0.3001,-0.78206 1.3899,-11.0497 3.7557,-22.81697 l 4.3013,-21.39504 3.2858,-1.54208 3.2858,-1.54207 -2.3503,-2.20793 c -1.8283,-1.71761 -3.5573,-2.20827 -7.7857,-2.20947 -7.4554,-0.002 -11.8827,-2.40193 -14.6856,-7.96034 -1.9304,-3.82815 -2.2486,-6.02968 -2.2402,-15.5 0.01,-9.5582 0.3334,-11.73327 2.4238,-16.22305 2.9381,-6.31037 6.3294,-8.31506 14.0664,-8.31506 11.6392,0 15.6882,5.59471 15.885,21.94949 0.067,5.5592 -0.4679,11.55776 -1.2798,14.35351 l -1.3948,4.803 3.2177,3.31976 c 2.5667,2.64822 3.1523,4.00295 2.8948,6.69701 -0.2868,2.99918 -0.6867,3.41231 -3.5729,3.69059 -1.7875,0.17235 -3.25,0.43365 -3.25,0.58068 0,0.45706 6.9392,34.97081 7.5343,37.47396 1.2746,5.36054 1.9925,-0.0841 2.4657,-18.69856 l 0.5,-19.66944 6.67,0 c 5.5552,0 7.0731,0.37879 9.082,2.26647 l 2.412,2.26647 1.1465,-2.51647 c 1.1057,-2.42665 1.4794,-2.51647 10.4681,-2.51647 5.727,0 9.7678,0.44638 10.479,1.15762 0.8768,0.87682 1.5099,0.86524 2.61,-0.0477 0.9099,-0.75515 4.0072,-1.09415 8.2924,-0.90762 l 6.84,0.2977 0.3075,4.25 0.3075,4.25 -3.8575,0 c -4.5114,0 -6.2575,1.3952 -6.2575,5 0,3.50028 1.7278,5 5.7604,5 3.2716,0 3.3521,0.0991 3.05,3.75 -0.2765,3.34031 -0.6381,3.78698 -3.3104,4.08849 -4.2424,0.47866 -5.5,1.86978 -5.5,6.08395 0,4.66681 1.4392,6.07756 6.2,6.07756 3.7733,0 3.8,0.0285 3.8,4.04206 l 0,4.04207 -7.75,-0.29207 -7.75,-0.29206 -0.5779,-19 c -0.3178,-10.45 -0.6553,-19.03456 -0.75,-19.07681 -0.9814,-0.43793 -6.3406,1.07494 -7.1156,2.00868 -0.5668,0.68298 -1.1278,8.83976 -1.2821,18.64123 l -0.2744,17.4269 -2.75,0.31642 -2.75,0.31642 0,-17.86642 c 0,-19.19528 -0.2692,-20.26642 -5.093,-20.26642 -3.0194,0 -3.907,1.50255 -3.907,6.61391 0,1.89768 -0.6756,5.06735 -1.5014,7.04372 -1.3764,3.29426 -1.3348,4.1328 0.5,10.07321 1.1008,3.56391 2.0014,8.23243 2.0014,10.3745 0,3.649 -0.1867,3.89466 -2.9599,3.89466 -3.1562,0 -3.1709,-0.0284 -6.0553,-11.70778 -2.023,-8.19164 -3.7435,-6.07218 -4.2274,5.20778 -0.2322,5.41332 -0.4828,6.03195 -2.5624,6.32676 -1.2678,0.17972 -2.876,-0.14707 -3.5738,-0.7262 -0.8885,-0.73738 -1.5848,-0.73696 -2.3232,0.001 -0.5799,0.57991 -2.3207,0.90671 -3.8684,0.72621 -2.2715,-0.26491 -2.9871,-1.00293 -3.712,-3.82818 -1.1625,-4.53131 -2.4397,-6 -5.2176,-6 -2.7779,0 -4.0551,1.46869 -5.2176,6 -0.7127,2.77799 -1.4545,3.56539 -3.5959,3.81697 -1.6463,0.19343 -2.9105,-0.23724 -3.2435,-1.10496 z m 13.3798,-22.83485 c -0.1775,-1.85744 -0.7728,-3.28696 -1.3228,-3.17672 -1.4775,0.29617 -2.3935,6.00606 -1.1612,7.23837 1.6449,1.6449 2.8424,-0.3131 2.484,-4.06165 z m 24.6772,-8.39086 c 0,-3.31963 -0.3345,-3.9863 -2,-3.9863 -1.4533,0 -2.0887,0.77486 -2.3246,2.83447 -0.4457,3.8929 0.4862,5.87735 2.5716,5.47574 1.321,-0.25441 1.753,-1.31986 1.753,-4.32391 z m -31.2072,-31.50194 c 3.4951,-2.74932 5.0059,-7.95322 4.5207,-15.5725 -0.7031,-11.04143 -6.7903,-15.7934 -12.119,-9.46061 -4.973,5.91008 -4.8019,19.0952 0.3142,24.21133 3.3785,3.37846 3.9516,3.44311 7.2841,0.82178 z m 25.0777,9.57544 c -5.444,-2.36917 -6.4803,-7.09539 -6.1522,-28.0598 l 0.2817,-18 3.5,0 3.5,0 0.5,17.0998 c 0.5432,18.57848 1.079,20.4002 6,20.4002 4.921,0 5.4568,-1.82172 6,-20.4002 l 0.5,-17.0998 3.5,0 3.5,0 0.2725,18.22833 c 0.3081,20.61147 -0.4019,23.85595 -5.9623,27.24604 -3.864,2.35582 -10.7699,2.61767 -15.4397,0.58543 z m 28.0776,-0.83453 c -0.2691,-0.7011 -0.3674,-10.9386 -0.2186,-22.75 l 0.2705,-21.47527 10.25,-0.28498 10.25,-0.28499 0,4.03499 0,4.03498 -5.3,0 c -5.9102,0 -7.7,1.16222 -7.7,5 0,3.68595 1.7608,5 6.7,5 l 4.3,0 0,4 0,4 -4.3,0 c -5.2412,0 -6.7,1.30641 -6.7,6 0,4.86486 1.4568,6 7.7,6 l 5.3,0 0,4 0,4 -10.0314,0 c -7.2064,0 -10.1691,-0.35898 -10.5205,-1.27473 z m -68.4481,-51.5372 c 0,-3.55625 8.53,-40.4414 9.9782,-43.14738 0.6842,-1.27832 0.6923,-2.12628 0.025,-2.53902 -1.9021,-1.17558 -0.9748,-3.4124 6.9973,-16.87943 4.4,-7.43273 8,-13.96782 8,-14.52243 0,-0.84429 -5.7052,-11.07845 -11.7624,-21.09981 -1.4866,-2.45945 -4.9066,-5.26475 -10.6528,-8.73794 -1.6033,-0.96913 -4.5346,-3.18096 -6.5139,-4.91518 -3.3695,-2.9522 -4.2556,-3.19969 -13.9056,-3.88384 l -10.3068,-0.73072 -3.6792,3.58501 c -7.7657,7.56678 -13.9163,8.20817 -35.4346,3.69515 l -14.2447,-2.98753 -4,-4.52061 c -3.7521,-4.24045 -4.3132,-4.52011 -9.0538,-4.51248 -4.4216,0.007 -5.4312,-0.39847 -8.0699,-3.24186 -1.6589,-1.7875 -3.7825,-4.4875 -4.7193,-6 -1.5149,-2.44619 -2.2953,-2.75 -7.0637,-2.75 -4.9709,0 -5.6192,-0.28622 -8.9182,-3.93783 -4.651,-5.1481 -6.3793,-10.76851 -4.8652,-15.82184 2.8788,-9.6088 12.7461,-17.24033 22.291,-17.24033 4.6509,0 4.7451,-0.0654 7.7428,-5.37704 3.5488,-6.28819 8.7256,-10.87775 14.0786,-12.48153 2.1958,-0.65788 10.8949,-1.14143 20.5342,-1.14143 l 16.7245,0 5.3854,4.60088 5.3854,4.60087 4.6072,-2.23032 c 3.6205,-1.75266 5.6546,-2.10628 9.4975,-1.65115 4.457,0.52787 5.1515,0.31786 7.8399,-2.37055 2.5318,-2.53178 3.7084,-2.94973 8.3042,-2.94973 3.487,0 6.2167,0.60954 7.8269,1.74773 3.463,2.44785 14.7657,2.72139 17.3282,0.41936 1.3467,-1.20975 3.7725,-1.67802 8.8427,-1.70695 5.6675,-0.0323 7.1775,-0.38049 7.9964,-1.84369 1.1676,-2.08635 6.682,-4.61645 10.0616,-4.61645 1.2764,0 4.1034,0.9492 6.2822,2.10933 2.2475,1.19673 5.5593,2.04596 7.6546,1.96285 5.0593,-0.20068 10.0747,2.09088 12.7262,5.81468 2.7181,3.8172 3.6863,3.86509 7.3415,0.36314 2.4661,-2.36264 3.6985,-2.75 8.7492,-2.75 5.2216,0 6.2484,0.35101 9.1844,3.13969 1.818,1.72682 4.3271,3.44753 5.5757,3.82379 1.9066,0.57454 2.494,0.14849 3.6674,-2.65999 0.7685,-1.83925 2.3015,-4.16243 3.4067,-5.16261 4.4627,-4.03864 13.8513,-3.84475 17.6608,0.36473 1.2419,1.37233 3.0821,1.99556 5.8999,1.99813 2.3264,0.002 5.5091,0.8659 7.3692,2 2.0032,1.22136 5.0371,1.99626 7.8157,1.99626 5.2037,0 8.0648,1.19209 10.9101,4.54572 1.6199,1.90933 3.9533,2.68161 12.2779,4.06369 l 10.2778,1.70637 4.8812,-2.28624 c 6.8111,-3.19012 10.7618,-2.31482 15.9002,3.52274 l 3.9452,4.48192 6.8861,-0.63999 c 6.4555,-0.59999 7.0834,-0.47397 10.0421,2.01562 1.7358,1.46059 3.7015,4.3284 4.3682,6.3729 0.6667,2.0445 2.0467,4.79046 3.0667,6.10213 3.9609,5.09338 1.0197,11.59433 -7.5008,16.57911 -2.2795,1.33361 -8.8303,3.99527 -14.5573,5.91481 -9.0615,3.03716 -10.571,3.86645 -11.6323,6.39046 -2.0551,4.88766 -5.9889,7.23076 -12.1395,7.23076 -3.0579,0 -6.7922,0.71228 -8.5792,1.63636 -1.7404,0.9 -4.9385,1.63637 -7.1069,1.63637 -2.4956,0 -5.2207,0.86744 -7.4255,2.36363 -3.7507,2.54531 -10.7629,3.20522 -14.2467,1.34076 -1.6353,-0.87524 -2.119,-0.5256 -3.3507,2.42221 -2.8237,6.75817 -11.6444,9.54592 -18.1182,5.72625 -4.6466,-2.74155 -5.0097,-2.6952 -6.4681,0.82567 -1.7285,4.17292 -5.1244,6.04875 -10.9502,6.04875 -4.1522,0 -5.5918,-0.51923 -8.4868,-3.06109 -2.8714,-2.5211 -3.8361,-2.87391 -5.469,-2 -1.0905,0.5836 -2.8642,1.06109 -3.9415,1.06109 -2.0939,0 -3.1727,1.81816 -3.1727,5.34739 0,1.2011 -0.8967,3.75179 -1.9926,5.66821 -6.0074,10.50467 -9.2074,17.68162 -9.2074,20.6505 0,1.82538 1.6718,6.88142 3.7151,11.23563 2.0433,4.35422 3.4318,8.3752 3.0855,8.93552 -0.3463,0.56032 0.2769,1.30648 1.3849,1.65814 1.944,0.61702 2.0145,1.46119 2.0145,24.13536 l 0,23.49597 -3.25,-0.31336 -3.25,-0.31336 0,-23.5 c 0,-14.51021 -0.3825,-23.78105 -1,-24.23469 -1.3903,-1.02147 -9.704,-0.92217 -11.3743,0.13585 -1.0523,0.66653 -0.7076,1.19023 1.4707,2.23469 1.5648,0.75028 3.4141,2.48915 4.1096,3.86415 1.9061,3.76851 1.6249,13.93783 -0.4814,17.40586 -1.7201,2.8322 -1.694,3.12372 1.0301,11.5 3.5455,10.90203 3.3769,12.59414 -1.2547,12.59414 -3.48,0 -3.5144,-0.0441 -6.0252,-7.7252 -4.3079,-13.17896 -6.933,-12.97582 -6.9595,0.53856 l -0.015,7.81336 -3.25,-0.31336 -3.25,-0.31336 0,-23.73973 c 0,-24.3052 -0.2027,-25.57904 -3.8485,-24.18003 -0.9745,0.37396 -1.2166,1.89061 -0.8728,5.46862 l 0.4758,4.95114 -4.4273,0 c -5.2279,0 -6.8272,1.28839 -6.8272,5.5 0,4.0902 1.5892,5.5 6.2,5.5 3.7667,0 3.8,0.0351 3.8,4 0,3.96491 -0.033,4 -3.8,4 -5.491,0 -6.2,1.22364 -6.2,10.7 l 0,8.3 -3.5505,0 -3.5505,0 0.3005,-23.99002 c 0.3346,-26.71267 0.8107,-25.02039 -7.0313,-24.99467 -5.5917,0.0183 -8.0407,1.21527 -6.4624,3.15847 1.2632,1.55523 10.2942,39.61165 10.2942,43.37939 0,2.35247 -0.3118,2.54156 -3.7222,2.2572 -3.5081,-0.29252 -3.799,-0.5833 -5.0568,-5.05557 -1.025,-3.64466 -1.9012,-4.88741 -3.7778,-5.3584 -4.7438,-1.19063 -6.971,0.20353 -8.509,5.32642 -1.2924,4.30473 -1.7556,4.80817 -4.6842,5.09054 -3.0004,0.2893 -3.25,0.0877 -3.25,-2.62529 z m 15.7219,-17.30993 c 0.617,-0.61702 0.9696,-1.62952 0.7835,-2.25 -0.1861,-0.62047 -0.6095,-2.36564 -0.9409,-3.87814 -0.8328,-3.80045 -2.3441,-3.44185 -3.1291,0.74247 -1.0133,5.40163 0.6101,8.06203 3.2865,5.38567 z m 51.7781,-12.89113 c 0,-3.57163 -2.2093,-5.69626 -4.8641,-4.67754 -1.9605,0.75231 -2.282,7.64445 -0.4424,9.48403 2.0289,2.02894 5.3065,-0.93977 5.3065,-4.80649 z m -10.1412,-58.81152 c 9.4472,-6.43994 17.126,-15.13979 14.6912,-16.64458 -0.5254,-0.32475 -6.4046,-0.14916 -13.0647,0.39021 -11.4222,0.92501 -12.3065,1.15372 -15.5821,4.02977 -2.8737,2.52314 -4.3293,3.04911 -8.438,3.04911 -2.7309,0 -4.9652,0.42988 -4.9652,0.95528 0,1.50093 10.5661,11.93819 13.1637,13.00315 3.4967,1.4336 6.6189,0.38158 14.1951,-4.78294 z"
       id="path3039"
       inkscape:connector-curvature="0" />
    <path
       style="fill:#94331f"
       d="m 289.7792,582.33364 c -20.7101,-0.77423 -21.3334,-1.1105 -20.5994,-11.11431 0.2939,-4.0055 1.5537,-8.9945 3.2827,-13 1.5432,-3.575 4.0223,-10.775 5.5093,-16 l 2.7034,-9.5 60.2378,0 60.2378,0 2.3949,6.5 c 3.7763,10.2494 4.8215,19.3664 3.3823,29.50481 -1.415,9.96821 -0.7476,9.4189 -14.7054,12.10408 -7.162,1.3778 -15.9384,1.7322 -47.2939,1.90979 -21.175,0.11993 -45.9923,-0.062 -55.1495,-0.40437 z m 97.6495,-56.84939 c -1.1,-0.26408 -2.5625,-0.93681 -3.25,-1.49497 -1.3179,-1.06997 -1.7887,-8.19909 -0.5,-7.5712 0.4125,0.20099 1.9857,0.98488 3.4959,1.742 2.4343,1.22033 2.9735,1.17072 4.75,-0.43707 3.3002,-2.9866 2.5355,-6.5657 -2.4475,-11.45618 -5.4303,-5.32946 -7.131,-11.23239 -5.469,-18.9822 1.3176,-6.1436 2.6425,-7.26884 8.0967,-6.87641 4.2101,0.30292 4.3321,0.40981 4.6343,4.06111 0.3409,4.11916 0.098,4.33437 -2.8274,2.50729 -2.6806,-1.67402 -5.3779,0.0563 -5.8124,3.72856 -0.2605,2.20119 0.6523,3.78091 4.3596,7.54477 5.5285,5.61289 7.0756,11.04623 5.3872,18.91908 -1.41,6.57436 -5.1693,9.57511 -10.4174,8.31522 z m -105.2691,-22.51492 0.2691,-22.25 2.488,0 c 2.6993,0 3.5036,1.71998 8.0876,17.29619 1.2605,4.28302 2.6175,7.1406 3.2858,6.91944 0.7278,-0.2408 1.319,-4.67766 1.6386,-12.29619 0.4072,-9.70617 0.7785,-11.91944 2,-11.91944 1.2775,0 1.54,3.13215 1.7695,21.11138 0.2344,18.36599 0.061,21.28443 -1.3338,22.44202 -2.9762,2.47004 -4.7375,-0.29404 -8.6172,-13.52373 -2.0641,-7.03858 -3.9627,-13.00723 -4.2192,-13.26368 -0.2564,-0.25644 -0.9462,-0.16964 -1.5328,0.19289 -0.6697,0.41395 -1.0665,5.6592 -1.0665,14.10014 0,11.3561 -0.2356,13.44098 -1.5191,13.44098 -1.3214,0 -1.4841,-2.89624 -1.25,-22.25 z m 23.7691,20.677 c 0,-2.84862 6.9806,-38.75464 8.0053,-41.177 0.9708,-2.29487 4.3719,-3.06676 5.4963,-1.24741 0.6511,1.0535 8.4829,40.53822 8.4927,42.81696 0,0.79209 -0.8774,1.19182 -2.2036,1 -1.6732,-0.24202 -2.406,-1.27101 -3.02,-4.24124 -1.082,-5.23366 -2.3768,-6.57831 -6.3341,-6.57831 -3.7507,0 -4.5213,0.84262 -5.9366,6.49111 -1.0311,4.11534 -4.5,6.3785 -4.5,2.93589 z m 12.9072,-16.81524 c 1.9845,-2.39112 -0.8607,-15.14561 -2.8931,-12.96912 -1.6703,1.78886 -3.1041,11.54397 -1.9084,12.98471 1.4572,1.75585 3.3364,1.74975 4.8015,-0.0156 z m 13.5404,17.1124 c -0.2692,-0.70171 -0.3676,-10.70834 -0.2186,-22.23696 0.2462,-19.04281 0.4312,-20.9919 2.021,-21.29748 1.6249,-0.31233 1.75,1.27708 1.75,22.23696 0,19.60412 -0.2014,22.57332 -1.5314,22.57332 -0.8422,0 -1.7517,-0.57413 -2.021,-1.27584 z m 10.7833,-20.97416 0.2691,-22.25 5.2434,-0.30203 c 4.4879,-0.25851 5.6046,0.0592 7.75,2.20454 2.1687,2.16869 2.5066,3.39563 2.5066,9.1017 0,4.10283 -0.6075,7.76998 -1.6077,9.70408 -1.3019,2.51768 -1.3991,3.79199 -0.5111,6.70034 2.6998,8.84152 3.9968,15.61341 3.1522,16.45801 -1.9616,1.96158 -3.8577,-0.52869 -5.4976,-7.22047 -1.9948,-8.13996 -3.5504,-10.73828 -5.8912,-9.84003 -1.3483,0.51739 -1.6446,2.16811 -1.6446,9.16248 0,7.89166 -0.1514,8.53138 -2.0191,8.53138 -1.9731,0 -2.013,-0.50753 -1.75,-22.25 z m 10.2124,-4.97251 c 2.6777,-3.82294 1.5885,-9.78383 -2.0423,-11.17709 -2.7567,-1.05787 -4.401,1.30412 -4.401,6.32204 0,6.84014 3.3074,9.33224 6.4433,4.85505 z m 12.0043,25.94667 c -0.2692,-0.70171 -0.3676,-10.71421 -0.2186,-22.25 l 0.271,-20.97416 6.75,-0.29569 6.75,-0.29569 0,3.54569 c 0,3.34462 -0.1871,3.54569 -3.3,3.54569 -4.245,0 -5.7,1.5316 -5.7,6 0,4.32683 1.4501,6 5.2,6 2.4444,0 2.8,0.38095 2.8,3 0,2.61905 -0.3556,3 -2.8,3 -3.9377,0 -5.2,1.69923 -5.2,7 0,5.45824 1.2554,7 5.7,7 3,0 3.3,0.27273 3.3,3 l 0,3 -6.5314,0 c -4.3731,0 -6.6931,-0.42159 -7.021,-1.27584 z m -77.2167,-70.97416 0.2691,-22.25 5.3687,0.14645 c 8.3397,0.2275 9.6313,2.07824 9.6313,13.80076 0,8.56328 -0.2138,9.61928 -2.4243,11.97223 -1.3334,1.41931 -3.3809,2.58056 -4.55,2.58056 -3.5469,0 -4.5257,1.98981 -4.5257,9.2 0,6.15481 -0.1916,6.8 -2.0191,6.8 -1.9731,0 -2.013,-0.50753 -1.75,-22.25 z m 9.6965,-2.38486 c 2.6023,-3.30826 2.6624,-8.42481 0.1353,-11.50436 -1.5754,-1.91964 -2.2761,-2.15457 -3.75,-1.25727 -3.4152,2.07908 -2.7775,15.39649 0.7372,15.39649 0.4427,0 1.7376,-1.18569 2.8775,-2.63486 z m 6.7883,23.94023 c -0.2589,-0.44295 1.3885,-10.20753 3.661,-21.69905 4.1714,-21.09428 5.2169,-23.74372 8.8233,-22.35982 1.0256,0.39357 2.7344,6.88423 5.6365,21.40915 2.2906,11.46439 4.1644,21.43815 4.1641,22.1639 -4e-4,0.79137 -0.8864,1.19164 -2.2136,1 -1.5879,-0.2293 -2.3992,-1.23573 -2.8724,-3.56339 -0.9293,-4.57119 -2.657,-6.25616 -6.4146,-6.25616 -3.7551,0 -5.4833,1.68314 -6.4173,6.25013 -0.6189,3.02607 -3.2912,4.89565 -4.367,3.05524 z m 13.1636,-17.65989 c 0.8015,-0.96584 0.8399,-2.85319 0.1336,-6.57734 -1.7059,-8.9951 -3.2319,-9.1472 -5.0268,-0.50102 -0.884,4.2583 -0.8713,5.86622 0.055,6.98256 1.5081,1.81712 3.3787,1.85416 4.838,0.0958 z m 13.5967,17.15259 c -0.2849,-0.74236 -0.396,-10.78812 -0.247,-22.32391 l 0.271,-20.97416 5.8444,0.12218 c 7.9923,0.16709 9.9447,2.16114 10.3852,10.60687 0.2351,4.50671 -0.1837,7.37391 -1.4885,10.1914 -1.7531,3.7856 -1.7533,4.10499 0,9.28559 0.9962,2.95082 2.0866,7.37412 2.4232,9.82955 0.5567,4.06134 0.4225,4.46441 -1.4855,4.46441 -1.636,0 -2.3284,-0.93481 -3.1479,-4.25 -2.319,-9.38154 -3.1003,-11.5663 -4.5735,-12.78899 -2.4747,-2.05382 -3.3383,-0.0388 -3.6565,8.53164 -0.2479,6.67575 -0.5841,8.04057 -2.0496,8.32041 -0.9641,0.18412 -1.9861,-0.27263 -2.2709,-1.01499 z m 11.3379,-27.0957 c 2.3889,-4.9843 -1.6439,-11.74819 -5.2301,-8.77194 -1.9082,1.58368 -2.1528,9.10059 -0.3546,10.89876 1.8418,1.84178 4.0937,0.9842 5.5847,-2.12682 z m 16.1861,10.4934 c 0,-19.10344 -0.1411,-19.67784 -5,-20.34995 -2.0343,-0.2814 -2.5,-0.9047 -2.5,-3.34582 l 0,-3 9,0 9,0 0.3134,3.25 c 0.2762,2.86461 0.024,3.25 -2.1276,3.25 -1.3425,0 -2.935,0.59539 -3.539,1.3231 -0.6793,0.81855 -1.2027,7.96373 -1.3724,18.73719 -0.2468,15.66275 -0.4504,17.4479 -2.0244,17.75023 -1.6142,0.31004 -1.75,-1.05729 -1.75,-17.61475 z m 15.4476,16.52839 c -0.2692,-0.70171 -0.3676,-10.71421 -0.2186,-22.25 l 0.271,-20.97416 6.5,0 6.5,0 0.3134,3.25 c 0.3046,3.15992 0.2062,3.25 -3.55,3.25 -4.8054,0 -6.2634,1.39671 -6.2634,6 0,4.48554 1.4555,6 5.7664,6 3.0825,0 3.3398,0.23193 3.05,2.75 -0.2559,2.22463 -0.8895,2.81467 -3.3164,3.08849 -4.4237,0.49912 -5.5,1.88535 -5.5,7.08395 0,5.67063 1.2325,7.07756 6.2,7.07756 3.5556,0 3.8,0.19298 3.8,3 l 0,3 -6.5314,0 c -4.3731,0 -6.6931,-0.42159 -7.021,-1.27584 z m -56.7325,-48.6327 c -4.1542,-3.82919 -4.6327,-4.0096 -9.2974,-3.50539 -6.1545,0.66525 -11.0075,-1.63689 -13.8837,-6.58607 -1.7379,-2.99048 -2.034,-5.24692 -2.034,-15.5 0,-10.5455 0.2739,-12.51264 2.2598,-16.22939 2.7142,-5.0797 6.5533,-7.27061 12.7402,-7.27061 10.6464,0 14.7362,6.08821 14.7118,21.90034 -0.01,6.18797 -0.5713,11.12191 -1.5807,13.8829 l -1.5658,4.28324 3.5428,3.92151 c 2.3488,2.59983 3.4332,4.69164 3.2174,6.20654 -0.5185,3.63977 -3.3886,3.24941 -8.1104,-1.10307 z m -6.0144,-12.34146 c 3.5549,-3.90292 4.2994,-6.40471 4.2956,-14.43426 0,-6.04668 -0.4557,-8.557 -2.0005,-11.09067 -6.0452,-9.91501 -15.9907,-2.78911 -15.9942,11.45983 0,9.76909 3.6079,16.3151 8.9984,16.3151 1.4757,0 3.5601,-0.9977 4.7007,-2.25 z m 24.6698,7.8098 c -5.3835,-2.34284 -6.483,-7.17841 -6.1528,-27.0598 l 0.2823,-17 2.5,0 2.5,0 0.5,17.34101 c 0.4823,16.72838 0.5834,17.40845 2.8608,19.25 1.2984,1.04994 3.1611,1.90899 4.1392,1.90899 0.9781,0 2.8408,-0.85905 4.1392,-1.90899 2.2774,-1.84155 2.3785,-2.52162 2.8608,-19.25 l 0.5,-17.34101 2.5,0 2.5,0 0.2735,16.59949 c 0.1884,11.43164 -0.123,17.80244 -1,20.46344 -2.367,7.18173 -10.699,10.34956 -18.403,6.99687 z m 28.0767,-0.8368 c -0.2695,-0.70235 -0.3679,-10.48985 -0.2186,-21.75 l 0.2714,-20.473 9.25,-0.28753 9.25,-0.28752 0,3.03752 c 0,3.00129 -0.063,3.03753 -5.3,3.03753 -6.2432,0 -7.7,1.13514 -7.7,6 0,4.69359 1.4588,6 6.7,6 4.1111,0 4.3,0.13178 4.3,3 0,2.86822 -0.1889,3 -4.3,3 -5.4639,0 -6.7,1.29142 -6.7,7 0,2.53 0.54,5.14 1.2,5.8 0.66,0.66 3.585,1.2 6.5,1.2 5.2222,0 5.3,0.044 5.3,3 l 0,3 -9.0314,0 c -6.4044,0 -9.1739,-0.37144 -9.5214,-1.277 z m -68.4472,-50.07345 c 0,-1.30164 7.0365,-32.22474 9.0791,-39.89955 0.8565,-3.21839 1.4005,-3.75 3.837,-3.75 1.5615,0 3.2681,0.5625 3.7926,1.25 0.8332,1.09229 10.3701,40.91779 10.313,43.06642 -0.012,0.44903 -1.2402,0.67403 -2.7294,0.5 -2.2241,-0.2599 -2.894,-1.03127 -3.75,-4.31846 -1.5271,-5.86351 -2.2135,-6.49796 -7.0299,-6.49796 -4.7667,0 -7.5124,1.87758 -7.5124,5.13717 0,3.12683 -1.8831,5.86283 -4.0352,5.86283 -1.0806,0 -1.9648,-0.6077 -1.9648,-1.35045 z m 16.6435,-17.16289 c 0.9674,-2.52091 -1.9503,-12.98666 -3.6205,-12.98666 -2.0685,0 -4.5584,11.14999 -2.9285,13.11391 1.5365,1.85135 5.8217,1.76809 6.549,-0.12725 z m 15.5874,-3.73666 0.2691,-22.25 7.5,0 7.5,0 0.3134,3.25 c 0.3102,3.21798 0.2703,3.25 -4.05,3.25 -5.4245,0 -6.7634,1.28676 -6.7634,6.5 0,5.09013 1.3448,6.5 6.2,6.5 3.5556,0 3.8,0.19298 3.8,3 0,2.80702 -0.2444,3 -3.8,3 -5.491,0 -6.2,1.22364 -6.2,10.7 0,8.20348 -0.029,8.3 -2.5191,8.3 l -2.5192,0 0.2692,-22.25 z m 22.2167,20.97416 c -0.2692,-0.70171 -0.3676,-10.71421 -0.2186,-22.25 l 0.271,-20.97416 7.2233,0 c 9.4287,0 11.4498,1.74516 12.0779,10.42883 0.3504,4.84408 0.025,6.70038 -1.6809,9.59194 l -2.1155,3.58542 2.4779,7.69691 c 3.5364,10.98491 3.6062,12.6969 0.5173,12.6969 -2.2419,0 -2.7628,-0.81755 -5.0458,-7.91989 -2.5988,-8.08495 -4.4144,-10.38494 -7.3183,-9.27064 -1.3376,0.51331 -1.6359,2.18314 -1.6359,9.15915 0,7.90865 -0.1483,8.53138 -2.0314,8.53138 -1.1172,0 -2.2517,-0.57413 -2.521,-1.27584 z m 11.7791,-25.47416 c 3.7658,-4.28849 2.6341,-10.20725 -2.248,-11.75678 -3.2521,-1.03216 -4.9787,1.19747 -4.9787,6.42922 0,6.68663 3.6624,9.38658 7.2267,5.32756 z m 15.2209,25.47416 c -0.2692,-0.70171 -0.3676,-10.71421 -0.2186,-22.25 0.27,-20.89637 0.2793,-20.97535 2.521,-21.29371 l 2.25,-0.31955 0,22.56955 c 0,22.01912 -0.05,22.56955 -2.0314,22.56955 -1.1172,0 -2.2517,-0.57413 -2.521,-1.27584 z m -72.4476,-48.13867 c 0,-0.22799 3.8584,-6.95701 8.5743,-14.95339 l 8.5743,-14.53887 -6.0743,-10.54471 c -3.3409,-5.79959 -6.0743,-10.93289 -6.0743,-11.40733 0,-0.47443 2.3625,-1.14662 5.25,-1.49375 4.3261,-0.52008 5.4626,-0.32463 6.4579,1.11071 5.114,7.37456 7.3991,10.00309 11.6319,13.38032 6.6039,5.26906 9.5239,5.14598 18.2939,-0.77112 8.9458,-6.03568 13.6986,-10.63266 16.5497,-16.00689 1.2722,-2.39825 2.607,-4.36046 2.9661,-4.36046 0.3591,0 1.5952,1.59706 2.7469,3.54902 1.2386,2.0993 3.5738,4.16731 5.7166,5.06264 3.5188,1.47027 3.6039,1.63051 2.9698,5.5957 -0.359,2.24515 -1.5277,5.31083 -2.597,6.81262 -1.0694,1.5018 -3.553,6.04917 -5.5191,10.10528 -4.1951,8.65455 -4.1149,11.66669 0.5573,20.92223 1.6368,3.24251 2.976,6.35831 2.976,6.92399 0,0.68591 -12.1587,1.02852 -36.5,1.02852 -20.075,0 -36.5,-0.18653 -36.5,-0.41451 z"
       id="path3041"
       inkscape:connector-curvature="0" />
  </g>
</svg>
